<svg id="Layer_1" data-name="Layer 1" xmlns="http://www.w3.org/2000/svg" xmlns:xlink="http://www.w3.org/1999/xlink" viewBox="0 0 190.31 216.33"><defs><style>.cls-1{fill:none;}.cls-2{clip-path:url(#clip-path);}.cls-3{clip-path:url(#clip-path-2);}.cls-4{fill:#ebdddc;}.cls-4,.cls-6,.cls-9{fill-rule:evenodd;}.cls-5{clip-path:url(#clip-path-4);}.cls-6{fill:#d6c0bf;}.cls-7{clip-path:url(#clip-path-7);}.cls-8{clip-path:url(#clip-path-10);}.cls-9{fill:#fff;}.cls-10{clip-path:url(#clip-path-13);}.cls-11{clip-path:url(#clip-path-16);}.cls-12{clip-path:url(#clip-path-19);}.cls-13{fill:#d3b1c2;}</style><clipPath id="clip-path" transform="translate(-543.19 -59.32)"><rect class="cls-1" x="544" y="58.67" width="189.33" height="182.67"/></clipPath><clipPath id="clip-path-2" transform="translate(-543.19 -59.32)"><rect class="cls-1" x="534.33" y="60.32" width="201" height="223" transform="translate(-12.9 57.88) rotate(-5.17)"/></clipPath><clipPath id="clip-path-4" transform="translate(-543.19 -59.32)"><rect class="cls-1" x="545.33" y="60" width="186.67" height="181.33"/></clipPath><clipPath id="clip-path-7" transform="translate(-543.19 -59.32)"><rect class="cls-1" x="542.67" y="140" width="192" height="136"/></clipPath><clipPath id="clip-path-10" transform="translate(-543.19 -59.32)"><rect class="cls-1" x="569.33" y="73.33" width="136" height="149.33"/></clipPath><clipPath id="clip-path-13" transform="translate(-543.19 -59.32)"><rect class="cls-1" x="546.67" y="213.33" width="172" height="57.33"/></clipPath><clipPath id="clip-path-16" transform="translate(-543.19 -59.32)"><rect class="cls-1" x="542.67" y="216" width="189.33" height="60"/></clipPath><clipPath id="clip-path-19" transform="translate(-543.19 -59.32)"><rect class="cls-1" x="625.2" y="195.37" width="30" height="33.96"/></clipPath></defs><g class="cls-2"><g class="cls-3"><g class="cls-3"><path class="cls-4" d="M732,143.07S637.23,241.32,630.9,241s-83.76-97.78-84.73-98.92l-1.56-1.58c.4,0,1.23.37,2-.47s90.43-78,92.44-79.9a3.12,3.12,0,0,1,4-.08c9.46,6,45.15,38.28,81.78,74.89C724.89,134.92,730.82,141.69,732,143.07Z" transform="translate(-543.19 -59.32)"/></g></g></g><g class="cls-5"><g class="cls-3"><g class="cls-3"><path class="cls-6" d="M730.86,143c-2.18-2.52-4.4-5-6.59-7.53-16.64-16.64-33.64-33-51-48.89-6.26-5.71-12.59-11.39-19.06-16.86-2.25-1.91-4.53-3.8-6.86-5.62-1.49-1.17-3.05-2.38-4.65-3.4-1-.61-2.11-.89-3,0-.43.41-.92.82-1.37,1.21l-3.12,2.72-10.54,9.12q-15.6,13.47-31.2,26.91t-31.37,27.06q-5.26,4.55-10.52,9.1l-3.07,2.67c-.4.34-.85.71-1.22,1.06a2.52,2.52,0,0,1-.76.59l-1.1,1.11s.51,1.21.52,1.23c3.2,3.73,8.16,7.05,14,14.22q13.92,17.28,28,34.4c9.17,11.1,18.43,22.2,28,33,3.28,3.69,6.62,7.42,10.13,10.9.67.66,4.08,4,4.93,4.14.93-.07,4.93-3.37,5.71-4,4.09-3.42,8.06-7.09,12-10.74,11.36-10.65,22.46-21.67,33.47-32.68q24.6-24.61,48.79-49.68Z" transform="translate(-543.19 -59.32)"/></g></g></g><g class="cls-7"><g class="cls-3"><g class="cls-3"><path class="cls-4" d="M552.38,149s-5.93-6.77-7.12-8.15-2.74,1.17-1.55,3.38.59,45.22.86,65-.6,38.71-.41,47.52-2.7,17.14.67,17.44,115.31-.83,136.77-.18,52.58,3.92,51.88-2.11-.91-15.13-.76-41.94.55-84.25.26-85.75-1.27-1.44-2.34-.28-91.88,79.35-94.17,80.92S593.89,190.5,552.38,149Z" transform="translate(-543.19 -59.32)"/></g></g></g><g class="cls-8"><g class="cls-3"><g class="cls-3"><path class="cls-9" d="M571.74,78.2l-1.63,81s-.15,2.15.79,2.78,64.73,59.86,64.73,59.86l69.56-60.17s-.06-76.25,0-81.2.08-5.87-4.64-6-119.3.28-124.33.13S571.74,78.2,571.74,78.2Z" transform="translate(-543.19 -59.32)"/></g></g></g><g class="cls-10"><g class="cls-3"><g class="cls-3"><path class="cls-6" d="M547.24,270.21c26.29-18.65,54.91-35.9,82.09-53.39,5.77-3.17,9.26-3.81,16.06.53,24.1,15.53,45.85,27.68,72.31,46.57Z" transform="translate(-543.19 -59.32)"/></g></g></g><g class="cls-11"><g class="cls-3"><g class="cls-3"><path class="cls-4" d="M731,271.93s-86.22-51.86-90.7-54.35-7.15-.27-17,6.71-78.56,46.14-79,47.48-.7,1.66.48,2.42,172.29,1.28,172.29,1.28S735.11,276.89,731,271.93Z" transform="translate(-543.19 -59.32)"/></g></g></g><g class="cls-12"><path class="cls-13" d="M655.11,222.61a.73.73,0,0,0-.6-.47A15.37,15.37,0,0,1,641.14,207,15.14,15.14,0,0,1,645,197a.73.73,0,0,0-.45-1.2,16.33,16.33,0,0,0-2.31-.17,16.72,16.72,0,1,0,0,33.43A17.1,17.1,0,0,0,655,223.35.74.74,0,0,0,655.11,222.61Z" transform="translate(-543.19 -59.32)"/></g></svg>