<?xml version="1.0" encoding="utf-8"?>
<!-- Generator: Adobe Illustrator 24.2.1, SVG Export Plug-In . SVG Version: 6.00 Build 0)  -->
<svg version="1.1" id="Layer_1" xmlns="http://www.w3.org/2000/svg" xmlns:xlink="http://www.w3.org/1999/xlink" x="0px" y="0px"
	 viewBox="0 0 1280 800" style="enable-background:new 0 0 1280 800;" xml:space="preserve">
<style type="text/css">
	.st0{fill:#FFFFFF;}
	.st1{fill:#474A59;}
	.st2{clip-path:url(#SVGID_2_);}
	.st3{clip-path:url(#SVGID_4_);}
	.st4{clip-path:url(#SVGID_6_);}
	.st5{fill:#D3B1C2;}
	.st6{clip-path:url(#SVGID_8_);}
	.st7{clip-path:url(#SVGID_10_);}
	.st8{clip-path:url(#SVGID_12_);}
	.st9{fill:#7C6A86;}
	.st10{fill:#B3799D;}
	.st11{clip-path:url(#SVGID_14_);}
	.st12{clip-path:url(#SVGID_16_);}
	.st13{clip-path:url(#SVGID_18_);}
	.st14{clip-path:url(#SVGID_20_);}
	.st15{clip-path:url(#SVGID_22_);}
</style>
<rect x="-128" y="-80" class="st0" width="1536" height="960"/>
<rect x="-128" y="-80" class="st1" width="1536" height="960"/>
<g>
	<defs>
		<rect id="SVGID_1_" x="896" width="384" height="488"/>
	</defs>
	<clipPath id="SVGID_2_">
		<use xlink:href="#SVGID_1_"  style="overflow:visible;"/>
	</clipPath>
	<g class="st2">
		<g>
			<defs>
				
					<rect id="SVGID_3_" x="974" y="-92.1" transform="matrix(0.9225 -0.386 0.386 0.9225 11.8221 467.7254)" width="393" height="593"/>
			</defs>
			<clipPath id="SVGID_4_">
				<use xlink:href="#SVGID_3_"  style="overflow:visible;"/>
			</clipPath>
			<g class="st3">
				<g>
					<defs>
						
							<rect id="SVGID_5_" x="974" y="-92.1" transform="matrix(0.9225 -0.386 0.386 0.9225 11.8221 467.7254)" width="393" height="593"/>
					</defs>
					<clipPath id="SVGID_6_">
						<use xlink:href="#SVGID_5_"  style="overflow:visible;"/>
					</clipPath>
					<g class="st4">
						<path class="st5" d="M991.4,119.4c-3.8,1.6-6.2-4.3-2.4-5.8C992.7,112,995.2,117.9,991.4,119.4z M1003.6,82.6
							c-0.3,0-0.7,0-1,0.1c-0.3,0.1-0.6,0.3-0.8,0.6l-0.4,0.6c-0.2,0.3-0.3,0.6-0.4,1c0,0.4,0,0.7,0.1,1.1c0.2,0.5,0.6,0.9,1.1,1.1
							c0.5,0.2,1,0.2,1.6,0c0.3-0.1,0.6-0.4,0.8-0.6c0.2-0.3,0.4-0.6,0.4-1l0.1-0.7c0.1-0.3,0-0.7-0.1-1c-0.1-0.3-0.3-0.6-0.6-0.8
							C1004.2,82.8,1003.9,82.7,1003.6,82.6z M979.2,79.4c-3.8,1.6-1.3,7.4,2.4,5.8C985.4,83.7,983,77.8,979.2,79.4z M1013.9,122
							c-3.8,1.6-1.3,7.4,2.4,5.8C1020.1,126.3,1017.6,120.4,1013.9,122z M1106.7,51.2c-3.8,1.6-1.3,7.4,2.4,5.8
							C1112.9,55.4,1110.4,49.6,1106.7,51.2z M1093.5,43c-3.8,1.6-1.3,7.4,2.4,5.8C1099.8,47.3,1097.3,41.5,1093.5,43z M1116.5,20.4
							c-3.8,1.6-1.3,7.4,2.4,5.8C1122.7,24.7,1120.3,18.9,1116.5,20.4z M1103.3-88.9c-3.8,1.6-1.3,7.4,2.4,5.8
							C1109.5-84.6,1107.1-90.4,1103.3-88.9z M1113.5-69.1c-3.8,1.6-1.3,7.4,2.4,5.8C1119.7-64.9,1117.3-70.7,1113.5-69.1z
							 M1193.5-115.7c-0.2,0-0.4,0-0.6,0c-0.1,0-0.2-0.1-0.3-0.1c-0.3,0-0.5,0-0.8,0.1c-0.3,0.1-0.5,0.3-0.6,0.6s-0.2,0.5-0.2,0.8
							c0,0.3,0.1,0.5,0.3,0.8l0,0c0.4,0.5,1,0.8,1.6,0.7c0.4,0,0.8-0.2,1.1-0.5c0.3-0.2,0.4-0.5,0.5-0.9c0-0.2,0-0.4,0-0.5
							c0-0.2-0.1-0.3-0.2-0.5c-0.1-0.1-0.2-0.3-0.4-0.3C1193.9-115.6,1193.7-115.6,1193.5-115.7L1193.5-115.7z M1160.7-14.5
							c-3.8,1.6-1.3,7.4,2.4,5.8C1166.9-10.2,1164.5-16,1160.7-14.5z M1219.2-72.1c3.8-1.6,1.3-7.4-2.4-5.8
							C1213-76.4,1215.4-70.5,1219.2-72.1z M1292.1,453.6c-3.8,1.6-1.3,7.4,2.4,5.8C1298.3,457.9,1295.8,452,1292.1,453.6z
							 M1280.7,432.3c-3.8,1.6-1.3,7.4,2.4,5.8C1286.9,436.6,1284.5,430.7,1280.7,432.3z M1294.4,430.2c-3.8,1.6-1.3,7.4,2.4,5.8
							C1300.6,434.5,1298.1,428.7,1294.4,430.2z M1404.2,418.2c-3.8,1.6-1.3,7.4,2.4,5.8C1410.4,422.4,1407.9,416.6,1404.2,418.2z
							 M1389.3,394.1c-3.8,1.6-1.3,7.4,2.4,5.8C1395.5,398.4,1393,392.6,1389.3,394.1z M1425.8,412.1c-3.8,1.6-1.3,7.4,2.4,5.8
							C1432,416.4,1429.6,410.6,1425.8,412.1L1425.8,412.1z M1269.3,103.7c3.8-1.6,1.3-7.4-2.4-5.8
							C1263.1,99.4,1265.6,105.2,1269.3,103.7L1269.3,103.7z M1238.7,60.3c-3.8,1.6-1.3,7.4,2.4,5.8
							C1244.9,64.6,1242.4,58.7,1238.7,60.3L1238.7,60.3z M1270.8,52.7c-3.8,1.6-1.3,7.4,2.4,5.8C1277,57,1274.6,51.2,1270.8,52.7
							L1270.8,52.7z M1002.8,32.6c0-0.3,0-0.7-0.1-1c-0.1-0.3-0.2-0.6-0.4-0.9c-0.2-0.3-0.5-0.5-0.8-0.7c-0.3-0.2-0.6-0.3-0.9-0.3
							h-0.7c-0.4,0-0.7,0.1-1,0.4c-0.1,0-0.2,0.1-0.2,0.1l0,0l-0.5,0.3l-0.4,0.4c-0.2,0.2-0.3,0.4-0.3,0.7c-0.1,0.2-0.1,0.3-0.1,0.5
							c0,0.2,0,0.4,0.1,0.5c0,0.2,0.1,0.3,0.2,0.5c0.1,0.1,0.1,0.2,0.2,0.3l0.2,0.4c0.2,0.3,0.4,0.5,0.8,0.6
							c0.3,0.2,0.6,0.3,0.9,0.3c0.3,0.1,0.7,0,1-0.1c0.5-0.1,0.9-0.4,1.3-0.8C1002.5,33.6,1002.8,33.1,1002.8,32.6z M976.8,27
							C976.8,27,976.9,27,976.8,27c0.6-0.2,1-0.4,1.5-0.6c0.5-0.2,0.9-0.5,1.2-0.9c0.1-0.1,0.2-0.3,0.3-0.4c0.1-0.2,0.1-0.3,0.2-0.5
							c0-0.2,0-0.3,0-0.5c0-0.2-0.1-0.3-0.1-0.5c-0.1-0.2-0.1-0.3-0.2-0.5c-0.1-0.1-0.2-0.3-0.3-0.4c-0.1-0.1-0.3-0.2-0.4-0.3
							c-0.2-0.1-0.3-0.1-0.5-0.2c-0.6-0.1-1.1-0.1-1.7,0.1c-0.5,0.2-1,0.4-1.4,0.6c-0.3,0.1-0.5,0.3-0.7,0.5
							c-0.2,0.2-0.4,0.4-0.5,0.7c-0.1,0.3-0.2,0.6-0.2,0.8c0,0.3,0,0.6,0.2,0.8c0.1,0.3,0.3,0.5,0.5,0.7c0.2,0.2,0.4,0.4,0.7,0.5
							c0.3,0.1,0.6,0.2,0.8,0.2C976.2,27.1,976.5,27.1,976.8,27z M1029.7,19.6c-3.8,1.6-1.3,7.4,2.4,5.8
							C1035.9,23.9,1033.5,18,1029.7,19.6z M1017.5,61.6l0.9,0.5c0.3,0.1,0.6,0.1,0.9,0.1c0.3-0.1,0.6-0.2,0.8-0.4
							c0.2-0.2,0.4-0.5,0.4-0.8c0.1-0.3,0-0.6-0.1-0.9c-0.2-0.4-0.4-0.7-0.8-0.8l-0.9-0.3c-0.4-0.1-0.7-0.1-1.1,0
							c-0.2,0.1-0.3,0.2-0.5,0.3c-0.1,0.1-0.2,0.3-0.3,0.5c-0.1,0.2-0.1,0.4-0.1,0.5s0,0.4,0.1,0.5l0.2,0.3
							C1017.1,61.4,1017.3,61.5,1017.5,61.6z M1059.5-60.3c3.8-1.6,1.3-7.4-2.4-5.8C1053.3-64.6,1055.7-58.8,1059.5-60.3z
							 M1259.1-82.3c-3.8,1.6-1.3,7.4,2.4,5.8C1265.4-78,1262.9-83.9,1259.1-82.3z M1219.8-97.3c0.2-0.1,0.4-0.2,0.6-0.4
							c0.2-0.2,0.3-0.3,0.4-0.6c0.1-0.2,0.1-0.4,0.1-0.7c0-0.2,0-0.5-0.1-0.7c-0.1-0.2-0.2-0.4-0.4-0.6c-0.2-0.2-0.4-0.3-0.6-0.4
							c-0.2-0.1-0.4-0.1-0.7-0.1c-0.2,0-0.5,0.1-0.7,0.1c-0.2,0.1-0.4,0.2-0.6,0.4c-0.2,0.2-0.3,0.4-0.4,0.6
							c-0.1,0.2-0.1,0.4-0.1,0.7c0,0.2,0.1,0.5,0.2,0.7c0.1,0.2,0.2,0.4,0.4,0.5c0.2,0.2,0.3,0.3,0.5,0.4c0.2,0.1,0.4,0.1,0.6,0.1
							C1219.4-97.2,1219.6-97.2,1219.8-97.3z M1088.9,201.3l-0.4,0c-6.7,0.3-2,11.6,2.9,7l0.3-0.3c0.3-0.3,0.6-0.6,0.8-0.9
							c0.2-0.3,0.4-0.7,0.5-1.1c0.1-0.4,0.1-0.8,0.1-1.2c0-0.4-0.1-0.8-0.3-1.2c-0.2-0.4-0.4-0.7-0.6-1c-0.3-0.3-0.6-0.6-0.9-0.8
							c-0.3-0.2-0.7-0.4-1.1-0.4C1089.7,201.2,1089.3,201.2,1088.9,201.3z M1066,181.9c-3.8,1.6-1.3,7.4,2.4,5.8
							C1072.2,186.2,1069.8,180.3,1066,181.9z M1172.4,423.1c-0.4-0.5-0.9-0.8-1.6-0.9c-0.7-0.1-1.3,0.1-1.8,0.5
							c-0.4,0.3-0.7,0.7-1,1.1c-0.2,0.4-0.4,0.8-0.4,1.2c0,0.1,0,0.3-0.1,0.4c-0.1,0.8,0.1,1.5,0.6,2.2c0.3,0.3,0.6,0.6,1,0.8
							c0.4,0.2,0.8,0.3,1.2,0.3c0.4,0,0.8,0,1.2-0.2c0.4-0.2,0.7-0.4,1-0.7c0.3-0.3,0.5-0.6,0.6-0.9c0.2-0.5,0.3-1,0.2-1.5v0
							c0-0.5-0.1-0.9-0.2-1.4C1172.9,423.8,1172.6,423.4,1172.4,423.1z M1208.3,341c-3.8,1.6-1.3,7.4,2.4,5.8
							C1214.5,345.3,1212.1,339.4,1208.3,341z M1240.1,357.2c-3.8,1.6-1.3,7.4,2.4,5.8C1246.3,361.4,1243.9,355.6,1240.1,357.2z
							 M1234.6,326.4c-3.8,1.6-1.3,7.4,2.4,5.8C1240.8,330.6,1238.3,324.8,1234.6,326.4z M1166.3,481.4c-3.8,1.6-1.3,7.4,2.4,5.8
							C1172.6,485.7,1170.1,479.8,1166.3,481.4z M1050.3,365.9c-0.2,0.1-0.4,0.2-0.6,0.4c-0.2,0.2-0.3,0.4-0.4,0.6
							c-0.1,0.2-0.2,0.5-0.2,0.7c0,0.2,0,0.5,0.1,0.7c0.1,0.2,0.2,0.4,0.4,0.6s0.4,0.3,0.6,0.4c0.2,0.1,0.5,0.1,0.7,0.1
							c0.2,0,0.5-0.1,0.7-0.1c0.2-0.1,0.4-0.2,0.6-0.4c0.2-0.2,0.3-0.4,0.4-0.6c0.1-0.2,0.1-0.5,0.1-0.7c0-0.2-0.1-0.5-0.2-0.7
							c-0.1-0.2-0.2-0.4-0.4-0.5c-0.2-0.2-0.3-0.3-0.6-0.4c-0.2-0.1-0.4-0.1-0.7-0.1C1050.8,365.8,1050.6,365.8,1050.3,365.9z
							 M1342.3,197.3c-3.8,1.6-1.3,7.4,2.4,5.8C1348.5,201.6,1346.1,195.7,1342.3,197.3z M1333.1,175.4c-3.8,1.6-1.3,7.4,2.4,5.8
							C1339.4,179.7,1336.9,173.8,1333.1,175.4z M1223,149.5c-3.8,1.6-1.3,7.4,2.4,5.8C1229.2,153.8,1226.7,147.9,1223,149.5z
							 M1168.5,26.7c-3.8,1.6-1.3,7.4,2.4,5.8C1174.7,30.9,1172.3,25.1,1168.5,26.7z M1047.1,325c-3.8,1.6-1.3,7.4,2.4,5.8
							C1053.3,329.2,1050.8,323.4,1047.1,325z M995.6,284.6c-3.8,1.6-1.3,7.4,2.4,5.8C1001.8,288.9,999.3,283.1,995.6,284.6z
							 M904.4,4.8c-3.8,1.6-1.3,7.4,2.4,5.8C910.6,9.1,908.2,3.2,904.4,4.8z M898,32.8c-3.8,1.6-1.3,7.4,2.4,5.8
							C904.2,37,901.8,31.2,898,32.8z M1014.7,259.2c-3.8,1.6-1.3,7.4,2.4,5.8C1021,263.5,1018.5,257.6,1014.7,259.2z M1307.8,105
							c-3.8,1.6-1.3,7.4,2.4,5.8C1314,109.3,1311.5,103.4,1307.8,105z"/>
					</g>
				</g>
			</g>
		</g>
	</g>
</g>
<g>
	<defs>
		<rect id="SVGID_7_" y="449.3" width="326.7" height="350.7"/>
	</defs>
	<clipPath id="SVGID_8_">
		<use xlink:href="#SVGID_7_"  style="overflow:visible;"/>
	</clipPath>
	<g class="st6">
		<g>
			<defs>
				
					<rect id="SVGID_9_" x="-159.2" y="474.1" transform="matrix(0.8548 -0.519 0.519 0.8548 -394.5085 131.2855)" width="393" height="593"/>
			</defs>
			<clipPath id="SVGID_10_">
				<use xlink:href="#SVGID_9_"  style="overflow:visible;"/>
			</clipPath>
			<g class="st7">
				<g>
					<defs>
						
							<rect id="SVGID_11_" x="-159.2" y="474.1" transform="matrix(0.8548 -0.519 0.519 0.8548 -394.5085 131.2855)" width="393" height="593"/>
					</defs>
					<clipPath id="SVGID_12_">
						<use xlink:href="#SVGID_11_"  style="overflow:visible;"/>
					</clipPath>
					<g class="st8">
						<path class="st9" d="M-152.4,713.2c-3.5,2.1-6.8-3.3-3.3-5.4C-152.2,705.6-149,711.1-152.4,713.2z M-145.9,675
							c-0.3,0-0.7,0.1-1,0.3c-0.3,0.2-0.5,0.4-0.7,0.7l-0.3,0.7c-0.2,0.3-0.3,0.7-0.2,1c0,0.4,0.1,0.7,0.3,1
							c0.3,0.5,0.7,0.8,1.3,0.9c0.5,0.1,1.1,0,1.5-0.2c0.3-0.2,0.6-0.4,0.7-0.8c0.2-0.3,0.3-0.7,0.3-1l0-0.7c0-0.3-0.1-0.7-0.3-1
							c-0.2-0.3-0.4-0.5-0.7-0.7C-145.3,675-145.6,675-145.9,675L-145.9,675z M-170.5,675.4c-3.5,2.1-0.2,7.5,3.3,5.4
							C-163.7,678.7-167,673.3-170.5,675.4z M-129.9,712.3c-3.5,2.1-0.2,7.5,3.3,5.4C-123.1,715.6-126.4,710.2-129.9,712.3z
							 M-48.6,628.5c-3.5,2.1-0.2,7.5,3.3,5.4C-41.9,631.8-45.2,626.4-48.6,628.5z M-62.8,622.4c-3.5,2.1-0.2,7.5,3.3,5.4
							C-56.1,625.7-59.3,620.3-62.8,622.4z M-43.5,596.7c-3.5,2.1-0.2,7.5,3.3,5.4C-36.7,600-40,594.5-43.5,596.7z M-72.8,490.5
							c-3.5,2.1-0.2,7.5,3.3,5.4C-66,493.8-69.3,488.4-72.8,490.5z M-59.8,508.5c-3.5,2.1-0.2,7.5,3.3,5.4
							C-53,511.8-56.3,506.4-59.8,508.5z M12.4,450.6c-0.2,0-0.4,0-0.6,0.1c-0.1,0-0.2,0-0.3,0c-0.3,0-0.5,0.1-0.8,0.3
							c-0.2,0.2-0.4,0.4-0.5,0.6c-0.1,0.3-0.1,0.5-0.1,0.8c0.1,0.3,0.2,0.5,0.4,0.7l0,0c0.5,0.5,1.1,0.6,1.7,0.4
							c0.4-0.1,0.8-0.3,1-0.7c0.2-0.3,0.4-0.6,0.4-0.9c0-0.2,0-0.3-0.1-0.5c-0.1-0.2-0.2-0.3-0.3-0.4c-0.1-0.1-0.3-0.2-0.4-0.3
							C12.8,450.6,12.6,450.6,12.4,450.6L12.4,450.6z M-4.9,555.6c-3.5,2.1-0.2,7.5,3.3,5.4C1.8,558.9-1.5,553.5-4.9,555.6z
							 M44.3,489.9c3.5-2.1,0.2-7.5-3.3-5.4C37.5,486.6,40.8,492,44.3,489.9z M194.6,998.9c-3.5,2.1-0.2,7.5,3.3,5.4
							S198.1,996.7,194.6,998.9z M180.2,979.5c-3.5,2.1-0.2,7.5,3.3,5.4C187,982.8,183.7,977.4,180.2,979.5z M193.4,975.4
							c-3.5,2.1-0.2,7.5,3.3,5.4C200.2,978.7,196.9,973.3,193.4,975.4z M300.2,947.2c-3.5,2.1-0.2,7.5,3.3,5.4
							C306.9,950.5,303.7,945,300.2,947.2z M281.9,925.6c-3.5,2.1-0.2,7.5,3.3,5.4C288.6,928.9,285.3,923.5,281.9,925.6z M320.7,938
							c-3.5,2.1-0.2,7.5,3.3,5.4C327.5,941.3,324.2,935.8,320.7,938L320.7,938z M120,656.2c3.5-2.1,0.2-7.5-3.3-5.4
							C113.2,652.9,116.5,658.3,120,656.2L120,656.2z M83.3,617.9c-3.5,2.1-0.2,7.5,3.3,5.4C90,621.2,86.7,615.8,83.3,617.9
							L83.3,617.9z M113.9,605.6c-3.5,2.1-0.2,7.5,3.3,5.4C120.7,608.9,117.4,603.5,113.9,605.6L113.9,605.6z M-154.1,625.6
							c0-0.3-0.1-0.7-0.2-1c-0.1-0.3-0.3-0.6-0.6-0.8c-0.2-0.2-0.5-0.4-0.8-0.5c-0.3-0.1-0.6-0.2-1-0.2l-0.7,0.1
							c-0.3,0.1-0.6,0.2-0.9,0.5c-0.1,0.1-0.1,0.1-0.2,0.2l0,0l-0.4,0.3l-0.3,0.4c-0.1,0.2-0.2,0.5-0.2,0.7c0,0.2,0,0.3,0,0.5
							c0,0.2,0.1,0.3,0.1,0.5c0.1,0.2,0.1,0.3,0.3,0.5c0.1,0.1,0.2,0.2,0.3,0.3l0.3,0.4c0.2,0.2,0.5,0.4,0.8,0.5
							c0.3,0.1,0.6,0.2,1,0.2c0.3,0,0.7-0.1,1-0.2c0.5-0.2,0.8-0.5,1.1-1C-154.2,626.6-154.1,626.1-154.1,625.6z M-180.7,623.9
							C-180.6,623.9-180.6,623.9-180.7,623.9c0.5-0.3,1-0.5,1.4-0.8c0.4-0.3,0.8-0.6,1.1-1.1c0.1-0.2,0.2-0.3,0.2-0.5
							c0-0.2,0.1-0.3,0.1-0.5c0-0.2,0-0.3-0.1-0.5c0-0.2-0.1-0.3-0.2-0.5c-0.1-0.2-0.2-0.3-0.3-0.4c-0.1-0.1-0.3-0.2-0.4-0.3
							c-0.1-0.1-0.3-0.2-0.5-0.2c-0.2-0.1-0.3-0.1-0.5-0.1c-0.6,0-1.1,0.1-1.7,0.4c-0.5,0.3-0.9,0.5-1.3,0.8
							c-0.3,0.1-0.5,0.3-0.7,0.6c-0.2,0.2-0.3,0.5-0.4,0.8c-0.1,0.3-0.1,0.6-0.1,0.9c0,0.3,0.1,0.6,0.3,0.8c0.1,0.3,0.3,0.5,0.6,0.7
							c0.2,0.2,0.5,0.3,0.8,0.4c0.3,0.1,0.6,0.1,0.9,0.1C-181.2,624.2-180.9,624.1-180.7,623.9z M-129.4,608.8
							c-3.5,2.1-0.2,7.5,3.3,5.4C-122.7,612-125.9,606.6-129.4,608.8z M-135.2,652.1l0.9,0.3c0.3,0.1,0.6,0.1,0.9,0
							c0.3-0.1,0.5-0.3,0.7-0.5c0.2-0.3,0.3-0.5,0.3-0.8c0-0.3-0.1-0.6-0.2-0.9c-0.2-0.4-0.5-0.6-0.9-0.7l-1-0.1
							c-0.4-0.1-0.7,0-1.1,0.2c-0.2,0.1-0.3,0.2-0.4,0.4c-0.1,0.2-0.2,0.3-0.2,0.5c0,0.2-0.1,0.4,0,0.6s0.1,0.4,0.2,0.5l0.2,0.3
							C-135.7,651.9-135.5,652.1-135.2,652.1z M-111.9,525.2c3.5-2.1,0.2-7.5-3.3-5.4C-118.7,521.9-115.4,527.4-111.9,525.2z
							 M82.3,473.8c-3.5,2.1-0.2,7.5,3.3,5.4C89.1,477.1,85.8,471.7,82.3,473.8z M41.1,464.9c0.2-0.1,0.4-0.3,0.5-0.5
							c0.1-0.2,0.3-0.4,0.3-0.6c0.1-0.2,0.1-0.5,0-0.7s-0.1-0.5-0.2-0.7c-0.1-0.2-0.3-0.4-0.5-0.5c-0.2-0.1-0.4-0.2-0.6-0.3
							c-0.2-0.1-0.5-0.1-0.7,0c-0.2,0-0.4,0.1-0.7,0.2c-0.2,0.1-0.4,0.3-0.5,0.5c-0.1,0.2-0.2,0.4-0.3,0.6c-0.1,0.2-0.1,0.5,0,0.7
							c0,0.2,0.1,0.4,0.3,0.6c0.1,0.2,0.3,0.3,0.5,0.5c0.2,0.1,0.4,0.2,0.6,0.3c0.2,0.1,0.4,0.1,0.6,0S40.9,465,41.1,464.9z
							 M-43.9,779.6l-0.4,0.1c-6.6,1.3-0.3,11.7,3.9,6.5l0.3-0.3c0.3-0.3,0.5-0.6,0.6-1c0.2-0.4,0.3-0.8,0.3-1.2
							c0-0.4,0-0.8-0.1-1.2c-0.1-0.4-0.2-0.8-0.5-1.1c-0.2-0.3-0.5-0.7-0.8-0.9c-0.3-0.3-0.7-0.5-1-0.6c-0.4-0.2-0.8-0.2-1.2-0.3
							C-43.1,779.4-43.5,779.5-43.9,779.6z M-69.4,763.8c-3.5,2.1-0.2,7.5,3.3,5.4C-62.6,767.1-65.9,761.7-69.4,763.8z M71.7,986.5
							c-0.5-0.4-1-0.6-1.7-0.7c-0.7,0-1.2,0.3-1.7,0.8c-0.4,0.4-0.6,0.8-0.8,1.3c-0.2,0.4-0.2,0.8-0.2,1.3c0,0.1,0,0.3,0,0.4
							c0,0.8,0.3,1.5,0.9,2.1c0.3,0.3,0.7,0.5,1.1,0.6c0.4,0.1,0.8,0.2,1.2,0.1c0.4,0,0.8-0.2,1.2-0.4c0.4-0.2,0.7-0.5,0.9-0.8
							c0.3-0.3,0.4-0.6,0.5-1c0.1-0.5,0.1-1,0-1.5l0,0c0-0.5-0.2-0.9-0.4-1.3C72.3,987.1,72,986.8,71.7,986.5z M95,900
							c-3.5,2.1-0.2,7.5,3.3,5.4C101.8,903.3,98.5,897.9,95,900z M128.8,911.2c-3.5,2.1-0.2,7.5,3.3,5.4
							C135.6,914.5,132.3,909.1,128.8,911.2z M118.8,881.6c-3.5,2.1-0.2,7.5,3.3,5.4C125.5,884.9,122.3,879.5,118.8,881.6z
							 M74.4,1045.1c-3.5,2.1-0.2,7.5,3.3,5.4C81.2,1048.4,77.9,1043,74.4,1045.1z M-57.5,948.1c-0.2,0.1-0.4,0.3-0.5,0.5
							c-0.2,0.2-0.3,0.4-0.3,0.6s-0.1,0.5,0,0.7c0,0.2,0.1,0.5,0.2,0.7s0.3,0.4,0.5,0.5c0.2,0.1,0.4,0.2,0.6,0.3
							c0.2,0.1,0.5,0.1,0.7,0c0.2,0,0.5-0.1,0.7-0.3c0.2-0.1,0.4-0.3,0.5-0.5c0.1-0.2,0.2-0.4,0.3-0.7c0.1-0.2,0.1-0.5,0-0.7
							c0-0.2-0.1-0.5-0.3-0.7c-0.1-0.2-0.3-0.3-0.5-0.5c-0.2-0.1-0.4-0.2-0.6-0.3c-0.2-0.1-0.4-0.1-0.7,0
							C-57.1,947.9-57.3,948-57.5,948.1z M206.1,738c-3.5,2.1-0.2,7.5,3.3,5.4C212.9,741.3,209.6,735.8,206.1,738z M193.8,717.6
							c-3.5,2.1-0.2,7.5,3.3,5.4C200.6,720.9,197.3,715.5,193.8,717.6z M81,708.4c-3.5,2.1-0.2,7.5,3.3,5.4
							C87.8,711.7,84.5,706.3,81,708.4z M8.8,595.1c-3.5,2.1-0.2,7.5,3.3,5.4C15.6,598.4,12.3,592.9,8.8,595.1z M-66.8,908.1
							c-3.5,2.1-0.2,7.5,3.3,5.4S-63.3,906-66.8,908.1z M-123.8,875.9c-3.5,2.1-0.2,7.5,3.3,5.4C-117,879.2-120.3,873.8-123.8,875.9
							z M-255.5,612.8c-3.5,2.1-0.2,7.5,3.3,5.4C-248.8,616.1-252,610.6-255.5,612.8z M-257.7,641.4c-3.5,2.1-0.2,7.5,3.3,5.4
							C-250.9,644.7-254.2,639.2-257.7,641.4z M-108.6,847.9c-3.5,2.1-0.2,7.5,3.3,5.4C-101.8,851.2-105.1,845.8-108.6,847.9z
							 M158.2,651.8c-3.5,2.1-0.2,7.5,3.3,5.4C165,655.1,161.7,649.7,158.2,651.8z"/>
					</g>
				</g>
			</g>
		</g>
	</g>
</g>
<path class="st10" d="M807.9,252.1c1.8,9.6,1.3,10.4-7.4,13.8c9.2-1.8,10-1.4,13.2,7.8c-1.8-9.6-1.3-10.4,7.4-13.8
	C812,261.7,811.2,261.2,807.9,252.1"/>
<path class="st5" d="M806.6,264.7c3.3,0,4.6,1.5,6.3,6c-0.9-6.2-0.1-7.7,5.5-10.1c-6,1-7.5,0.1-9.8-5.7c0.9,6.2,0.1,7.7-5.5,10.1
	C804.5,264.8,805.7,264.7,806.6,264.7z M813.5,273.7c-3.2-9.1-3.8-9.4-12.9-7.6l-0.2-0.5c8.7-3.4,9-4,7.3-13.5l0.5-0.1
	c3.2,9.1,3.8,9.4,12.9,7.6l0.2,0.5c-8.7,3.4-9,4-7.3,13.5L813.5,273.7"/>
<path class="st10" d="M865.2,294.2c2.3,9.5,2,10.3-6.6,14.3c9.1-2.4,9.9-2,13.7,6.9c-2.3-9.5-2-10.3,6.6-14.3
	C869.8,303.6,869,303.2,865.2,294.2"/>
<path class="st5" d="M865.2,306.9c2.9,0,4.2,1.5,6.1,5.6c-1.3-6.1-0.5-7.7,4.9-10.4c-5.9,1.4-7.5,0.6-10.1-5
	c1.3,6.1,0.5,7.7-4.9,10.4C862.8,307.1,864.1,306.9,865.2,306.9z M872,315.5c-3.8-8.8-4.4-9.2-13.3-6.8l-0.2-0.5
	c8.5-3.9,8.8-4.6,6.5-13.9l0.5-0.2c3.7,8.8,4.4,9.2,13.3,6.7l0.2,0.5c-8.5,3.9-8.8,4.6-6.5,13.9L872,315.5"/>
<g>
	<defs>
		<rect id="SVGID_13_" x="793.8" y="300" width="22.2" height="22.7"/>
	</defs>
	<clipPath id="SVGID_14_">
		<use xlink:href="#SVGID_13_"  style="overflow:visible;"/>
	</clipPath>
	<g class="st11">
		<path class="st10" d="M807,300.3c-3.1,9.2-3.9,9.7-13.1,8c8.8,3.3,9.3,4,7.7,13.7c3.1-9.2,3.9-9.7,13.1-8
			C805.8,310.7,805.4,309.9,807,300.3"/>
		<path class="st5" d="M796.6,309c5.6,2.3,6.5,3.8,5.7,10c2.2-5.8,3.7-6.7,9.7-5.8c-5.6-2.3-6.5-3.8-5.7-10
			C804.1,309,802.6,309.9,796.6,309z M801.8,322.1l-0.5-0.1c1.6-9.5,1.3-10.2-7.5-13.4l0.1-0.5c9.1,1.7,9.7,1.3,12.8-7.8l0.5,0.1
			c-1.6,9.5-1.3,10.2,7.5,13.4l-0.1,0.5C805.5,312.6,804.9,312.9,801.8,322.1"/>
	</g>
</g>
<path class="st10" d="M929.6,186c-2.3,9.5-3,10-12.4,9.2c9.1,2.4,9.6,3.2,8.8,12.9c2.3-9.5,3-10,12.4-9.2
	C929.3,196.5,928.8,195.8,929.6,186"/>
<path class="st5" d="M919.9,195.7c5.8,1.7,6.8,3.2,6.5,9.4c1.7-6,3.1-7,9.1-6.7c-5.8-1.7-6.8-3.2-6.5-9.4
	C927.4,195,926,196,919.9,195.7z M926.2,208.2l-0.5-0.1c0.8-9.6,0.4-10.2-8.6-12.6l0.1-0.5c9.2,0.8,9.8,0.4,12.1-9l0.5,0.1
	c-0.8,9.6-0.4,10.2,8.6,12.6l-0.1,0.5C929.1,198.4,928.5,198.8,926.2,208.2"/>
<g>
	<defs>
		<rect id="SVGID_15_" x="970.1" y="175.6" width="19.7" height="20.9"/>
	</defs>
	<clipPath id="SVGID_16_">
		<use xlink:href="#SVGID_15_"  style="overflow:visible;"/>
	</clipPath>
	<g class="st12">
		<path class="st10" d="M975.4,175.7c3.3,9.2,3,10-5.1,14.9c8.8-3.4,9.6-3.1,14.3,5.4c-3.3-9.2-3-10,5.1-14.9
			C980.9,184.5,980.1,184.2,975.4,175.7"/>
	</g>
</g>
<g>
	<defs>
		<rect id="SVGID_17_" x="969.6" y="175.6" width="20.2" height="20.9"/>
	</defs>
	<clipPath id="SVGID_18_">
		<use xlink:href="#SVGID_17_"  style="overflow:visible;"/>
	</clipPath>
	<g class="st13">
		<path class="st5" d="M977.4,188.3c2.4,0,3.8,1.4,5.9,5c-1.9-5.9-1.3-7.6,3.8-10.9c-5.7,2-7.4,1.4-10.5-3.9
			c1.9,5.9,1.3,7.6-3.8,10.9C974.7,188.7,976.2,188.3,977.4,188.3z M984.3,196.1c-4.6-8.4-5.3-8.6-13.9-5.2l-0.2-0.5
			c8-4.8,8.3-5.5,5-14.6l0.5-0.2c4.6,8.4,5.3,8.6,13.9,5.2l0.2,0.5c-8,4.8-8.3,5.5-5,14.6L984.3,196.1"/>
	</g>
</g>
<path class="st10" d="M862.1,247.3c-4.3,8.7-5.1,9.1-14,6.1c8.3,4.5,8.7,5.3,5.8,14.6c4.3-8.7,5.1-9.1,14-6.1
	C859.6,257.5,859.2,256.7,862.1,247.3"/>
<path class="st5" d="M850.7,254.6c5.3,3,6,4.7,4.3,10.7c2.9-5.5,4.5-6.2,10.3-4.4c-5.3-3-6-4.7-4.3-10.7
	C858.1,255.6,856.4,256.3,850.7,254.6z M854.1,268.2l-0.5-0.2c2.8-9.2,2.5-9.9-5.7-14.3l0.2-0.5c8.8,2.9,9.5,2.7,13.7-6l0.5,0.2
	c-2.8,9.2-2.5,9.9,5.7,14.3l-0.2,0.5C859,259.3,858.4,259.6,854.1,268.2"/>
<path class="st10" d="M918.9,277.8c1.1,9.7,0.6,10.5-8.4,13.2c9.3-1.1,10-0.6,12.7,8.8c-1.1-9.7-0.6-10.5,8.4-13.2
	C922.2,287.7,921.5,287.2,918.9,277.8"/>
<path class="st5" d="M915.7,290.3c4,0,5.3,1.5,6.9,6.5c-0.5-6.2,0.5-7.7,6.2-9.7c-6,0.5-7.5-0.4-9.3-6.4c0.5,6.2-0.5,7.7-6.2,9.7
	C914.1,290.3,914.9,290.3,915.7,290.3z M922.9,299.8c-2.6-9.3-3.2-9.7-12.4-8.6l-0.1-0.5c8.9-2.7,9.3-3.3,8.2-12.9l0.5-0.1
	c2.6,9.3,3.2,9.7,12.4,8.6l0.1,0.5c-8.9,2.7-9.3,3.3-8.2,12.9L922.9,299.8"/>
<path class="st10" d="M923,226c-5.9,7.6-6.7,7.8-14.9,3c7.3,6.1,7.5,7,2.9,15.5c5.9-7.6,6.7-7.8,14.9-3
	C918.6,235.4,918.4,234.5,923,226"/>
<path class="st5" d="M910.5,230.7c4.6,4.1,4.9,5.9,2.2,11.4c3.9-4.8,5.6-5.1,10.9-2.2c-4.6-4.1-4.9-5.9-2.2-11.4
	C917.5,233.2,915.8,233.6,910.5,230.7z M911.2,244.8l-0.5-0.3c4.5-8.4,4.4-9.2-2.8-15.2l0.3-0.4c8.1,4.7,8.8,4.6,14.5-3l0.5,0.3
	c-4.5,8.4-4.4,9.2,2.8,15.2l-0.3,0.4C917.7,237.1,917,237.2,911.2,244.8"/>
<path class="st10" d="M881.4,202.1c1.6,9.6,1.1,10.4-7.7,13.6c9.2-1.7,10-1.2,13.1,8.1c-1.6-9.6-1.1-10.4,7.7-13.6
	C885.2,211.8,884.4,211.3,881.4,202.1"/>
<path class="st5" d="M879.5,214.7c3.4,0,4.8,1.5,6.5,6.1c-0.8-6.2,0.1-7.7,5.7-10c-6,0.9-7.5,0-9.6-5.9c0.8,6.2-0.1,7.7-5.7,10
	C877.6,214.8,878.6,214.7,879.5,214.7z M886.5,223.8c-3-9.1-3.6-9.5-12.8-7.9l-0.1-0.5c8.8-3.2,9.1-3.8,7.5-13.3l0.5-0.1
	c3,9.1,3.6,9.5,12.8,7.9l0.1,0.5c-8.8,3.2-9.1,3.8-7.5,13.3L886.5,223.8"/>
<path class="st10" d="M904.3,348.4c-8.6,3.8-9.5,3.5-14.5-4.8c3.6,9,3.4,9.9-4.6,15.1c8.6-3.8,9.5-3.5,14.5,4.8
	C896.1,354.5,896.4,353.6,904.3,348.4"/>
<path class="st5" d="M892.6,356.1c2.2,0,3.7,1.4,5.8,4.7c-2.1-5.8-1.6-7.6,3.4-11.1c-5.6,2.3-7.3,1.7-10.6-3.5
	c2.1,5.8,1.6,7.6-3.4,11.1C889.8,356.6,891.3,356.1,892.6,356.1z M899.5,363.7c-4.9-8.2-5.6-8.4-14.1-4.7l-0.3-0.5
	c7.8-5.2,8.1-5.8,4.5-14.8l0.5-0.2c4.9,8.2,5.6,8.4,14.1,4.7l0.3,0.5c-7.8,5.2-8.1,5.8-4.5,14.8L899.5,363.7"/>
<g>
	<defs>
		<rect id="SVGID_19_" x="804.8" y="365.3" width="20.3" height="21.2"/>
	</defs>
	<clipPath id="SVGID_20_">
		<use xlink:href="#SVGID_19_"  style="overflow:visible;"/>
	</clipPath>
	<g class="st14">
		<path class="st10" d="M811.1,365.6c2.7,9.4,2.4,10.2-6.1,14.5c9-2.8,9.8-2.5,13.9,6.3c-2.7-9.4-2.4-10.2,6.1-14.5
			C816,374.7,815.2,374.3,811.1,365.6"/>
	</g>
</g>
<g>
	<defs>
		<rect id="SVGID_21_" x="804.8" y="365.3" width="20.5" height="21.2"/>
	</defs>
	<clipPath id="SVGID_22_">
		<use xlink:href="#SVGID_21_"  style="overflow:visible;"/>
	</clipPath>
	<g class="st15">
		<path class="st5" d="M811.9,378.3c2.6,0,4,1.5,6,5.4c-1.5-6-0.8-7.7,4.5-10.7c-5.8,1.6-7.4,0.9-10.2-4.6c1.5,6,0.8,7.7-4.5,10.7
			C809.4,378.5,810.8,378.3,811.9,378.3z M818.7,386.5c-4.1-8.7-4.7-9-13.6-6.2l-0.2-0.5c8.3-4.3,8.6-4.9,5.9-14.2l0.5-0.2
			c4.1,8.7,4.7,9,13.6,6.2l0.2,0.5c-8.3,4.3-8.6,4.9-5.9,14.2L818.7,386.5"/>
	</g>
</g>
<g>
	<g transform="translate(244.674648, 223.189205)">
	</g>
</g>
<g>
	<g transform="translate(165.766258, 300.600962)">
	</g>
</g>
<g>
	<g transform="translate(228.662543, 300.600962)">
	</g>
</g>
<g>
	<g transform="translate(263.916525, 300.600962)">
	</g>
</g>
<g>
	<g transform="translate(287.461325, 300.600962)">
	</g>
</g>
<g>
	<g transform="translate(369.38452, 300.600962)">
	</g>
</g>
<g>
	<g transform="translate(403.115977, 300.600962)">
	</g>
</g>
<g>
	<g transform="translate(155.111638, 319.08671)">
	</g>
</g>
<g>
	<g transform="translate(231.083077, 319.08671)">
	</g>
</g>
<g>
	<g transform="translate(305.161292, 319.08671)">
	</g>
</g>
<g>
	<g transform="translate(347.32316, 319.08671)">
	</g>
</g>
<g>
	<g transform="translate(370.867937, 319.08671)">
	</g>
</g>
<g>
	<g transform="translate(431.051774, 319.08671)">
	</g>
</g>
<g>
	<g transform="translate(155.892193, 337.572458)">
	</g>
</g>
<g>
	<g transform="translate(193.672804, 337.572458)">
	</g>
</g>
<g>
	<g transform="translate(276.786369, 337.572458)">
	</g>
</g>
<g>
	<g transform="translate(389.825736, 337.572458)">
	</g>
</g>
<g>
	<g transform="translate(145.754302, 356.058205)">
	</g>
</g>
<g>
	<g transform="translate(229.813863, 356.058205)">
	</g>
</g>
<g>
	<g transform="translate(302.535852, 356.058205)">
	</g>
</g>
<g>
	<g transform="translate(326.080617, 356.058205)">
	</g>
</g>
<g>
	<g transform="translate(377.902315, 356.058205)">
	</g>
</g>
<g>
	<g transform="translate(404.871807, 356.058205)">
	</g>
</g>
<g>
	<g transform="translate(438.603265, 356.058205)">
	</g>
</g>
<g>
	<g transform="translate(153.404165, 374.543953)">
	</g>
</g>
<g>
	<g transform="translate(190.365193, 374.543953)">
	</g>
</g>
<g>
	<g transform="translate(226.692023, 374.543953)">
	</g>
</g>
<g>
	<g transform="translate(281.119271, 374.543953)">
	</g>
</g>
<g>
	<g transform="translate(341.303107, 374.543953)">
	</g>
</g>
<g>
	<g transform="translate(415.351999, 374.543953)">
	</g>
</g>
<g>
	<g transform="translate(165.200358, 393.029701)">
	</g>
</g>
<g>
	<g transform="translate(188.58902, 393.029701)">
	</g>
</g>
<g>
	<g transform="translate(256.815292, 499.804542)">
	</g>
</g>
<g>
	<g transform="translate(293.448924, 499.804542)">
	</g>
</g>
<g>
	<g transform="translate(360.590867, 499.804542)">
	</g>
</g>
</svg>
