<svg width="29" height="33" viewBox="0 0 29 33" fill="none" xmlns="http://www.w3.org/2000/svg">
<mask id="mask0_1_82" style="mask-type:luminance" maskUnits="userSpaceOnUse" x="0" y="0" width="29" height="33">
<path d="M0.395813 0.755188H28.3958V32.7552H0.395813V0.755188Z" fill="white"/>
</mask>
<g mask="url(#mask0_1_82)">
<path d="M28.3125 26.3906C28.2239 26.151 28.0104 25.9844 27.7552 25.9479C20.6406 24.9844 15.276 18.875 15.276 11.7396C15.276 8.28644 16.5469 4.93748 18.8437 2.31769C19.0104 2.13019 19.0573 1.85935 18.9687 1.62498C18.8802 1.3854 18.6666 1.21873 18.4166 1.18227C17.6302 1.0781 16.9271 1.02081 16.2656 1.02081C7.53644 1.02081 0.442688 8.07811 0.442688 16.7552C0.442688 25.4323 7.54165 32.4896 16.2656 32.4896C20.8229 32.4896 25.1719 30.5156 28.1875 27.0885C28.3541 26.8906 28.401 26.625 28.3125 26.3906Z" fill="#B3799D"/>
</g>
</svg>
